<svg width="27" height="28" viewBox="0 0 27 28" fill="none" xmlns="http://www.w3.org/2000/svg">
<mask id="mask0_189_1079" style="mask-type:luminance" maskUnits="userSpaceOnUse" x="0" y="0" width="27" height="28">
<path d="M26.686 11.3023H13.814V16.6395H21.2233C20.5326 20.0302 17.6442 21.9767 13.814 21.9767C9.29302 21.9767 5.65116 18.3349 5.65116 13.814C5.65116 9.29302 9.29302 5.65116 13.814 5.65116C15.7605 5.65116 17.5186 6.34186 18.9 7.47209L22.9186 3.45349C20.4698 1.3186 17.3302 0 13.814 0C6.15349 0 0 6.15349 0 13.814C0 21.4744 6.15349 27.6279 13.814 27.6279C20.7209 27.6279 27 22.6047 27 13.814C27 12.9977 26.8744 12.1186 26.686 11.3023Z" fill="white"/>
</mask>
<g mask="url(#mask0_189_1079)">
<path d="M-1.25391 21.976V5.65039L9.42051 13.8132L-1.25391 21.976Z" fill="#FBBC05"/>
</g>
<mask id="mask1_189_1079" style="mask-type:luminance" maskUnits="userSpaceOnUse" x="0" y="0" width="27" height="28">
<path d="M26.686 11.3023H13.814V16.6395H21.2233C20.5326 20.0302 17.6442 21.9767 13.814 21.9767C9.29302 21.9767 5.65116 18.3349 5.65116 13.814C5.65116 9.29302 9.29302 5.65116 13.814 5.65116C15.7605 5.65116 17.5186 6.34186 18.9 7.47209L22.9186 3.45349C20.4698 1.3186 17.3302 0 13.814 0C6.15349 0 0 6.15349 0 13.814C0 21.4744 6.15349 27.6279 13.814 27.6279C20.7209 27.6279 27 22.6047 27 13.814C27 12.9977 26.8744 12.1186 26.686 11.3023Z" fill="white"/>
</mask>
<g mask="url(#mask1_189_1079)">
<path d="M-1.25391 5.65112L9.42051 13.8139L13.8159 9.98368L28.8856 7.53484V-1.25586H-1.25391V5.65112Z" fill="#EA4335"/>
</g>
<mask id="mask2_189_1079" style="mask-type:luminance" maskUnits="userSpaceOnUse" x="0" y="0" width="27" height="28">
<path d="M26.686 11.3023H13.814V16.6395H21.2233C20.5326 20.0302 17.6442 21.9767 13.814 21.9767C9.29302 21.9767 5.65116 18.3349 5.65116 13.814C5.65116 9.29302 9.29302 5.65116 13.814 5.65116C15.7605 5.65116 17.5186 6.34186 18.9 7.47209L22.9186 3.45349C20.4698 1.3186 17.3302 0 13.814 0C6.15349 0 0 6.15349 0 13.814C0 21.4744 6.15349 27.6279 13.814 27.6279C20.7209 27.6279 27 22.6047 27 13.814C27 12.9977 26.8744 12.1186 26.686 11.3023Z" fill="white"/>
</mask>
<g mask="url(#mask2_189_1079)">
<path d="M-1.25391 21.9767L17.5833 7.53484L22.5438 8.16275L28.8856 -1.25586V28.8837H-1.25391V21.9767Z" fill="#34A853"/>
</g>
<mask id="mask3_189_1079" style="mask-type:luminance" maskUnits="userSpaceOnUse" x="0" y="0" width="27" height="28">
<path d="M26.686 11.3023H13.814V16.6395H21.2233C20.5326 20.0302 17.6442 21.9767 13.814 21.9767C9.29302 21.9767 5.65116 18.3349 5.65116 13.814C5.65116 9.29302 9.29302 5.65116 13.814 5.65116C15.7605 5.65116 17.5186 6.34186 18.9 7.47209L22.9186 3.45349C20.4698 1.3186 17.3302 0 13.814 0C6.15349 0 0 6.15349 0 13.814C0 21.4744 6.15349 27.6279 13.814 27.6279C20.7209 27.6279 27 22.6047 27 13.814C27 12.9977 26.8744 12.1186 26.686 11.3023Z" fill="white"/>
</mask>
<g mask="url(#mask3_189_1079)">
<path d="M28.883 28.8849L9.41788 13.8151L6.90625 11.9314L28.883 5.65234V28.8849Z" fill="#4285F4"/>
</g>
</svg>
