<svg width="24" height="24" viewBox="0 0 24 24" fill="none" xmlns="http://www.w3.org/2000/svg">
<path d="M12.1241 23.78C12.0453 23.78 11.9666 23.78 11.8873 23.7797C10.0233 23.7842 8.30104 23.7368 6.6261 23.6349C5.0905 23.5414 3.68879 23.0108 2.57228 22.1004C1.49496 21.2219 0.759275 20.0341 0.385715 18.5703C0.0605969 17.296 0.0433612 16.045 0.0268513 14.8351C0.014877 13.967 0.00253999 12.9383 0 11.8922C0.00253999 10.8417 0.014877 9.81299 0.0268513 8.94486C0.0433612 7.7351 0.0605969 6.48416 0.385715 5.20963C0.759275 3.74587 1.49496 2.55806 2.57228 1.67959C3.68879 0.769186 5.0905 0.238511 6.62628 0.145075C8.30122 0.0432945 10.0239 -0.00423955 11.8919 0.000296142C13.7564 -0.00369527 15.4781 0.0432945 17.1531 0.145075C18.6887 0.238511 20.0904 0.769186 21.2069 1.67959C22.2844 2.55806 23.0199 3.74587 23.3935 5.20963C23.7186 6.48397 23.7358 7.7351 23.7523 8.94486C23.7643 9.81299 23.7768 10.8417 23.7792 11.8878V11.8922C23.7768 12.9383 23.7643 13.967 23.7523 14.8351C23.7358 16.0448 23.7188 17.2958 23.3935 18.5703C23.0199 20.0341 22.2844 21.2219 21.2069 22.1004C20.0904 23.0108 18.6887 23.5414 17.1531 23.6349C15.5491 23.7325 13.9013 23.78 12.1241 23.78ZM11.8873 21.9218C13.721 21.9262 15.4047 21.8799 17.0402 21.7805C18.2014 21.7099 19.2081 21.3331 20.0329 20.6605C20.7952 20.0388 21.3203 19.181 21.5933 18.1109C21.864 17.0501 21.8796 15.9111 21.8947 14.8097C21.9065 13.9474 21.9188 12.9259 21.9214 11.89C21.9188 10.8538 21.9065 9.83258 21.8947 8.97026C21.8796 7.86881 21.864 6.72981 21.5933 5.66882C21.3203 4.59876 20.7952 3.74097 20.0329 3.11922C19.2081 2.44685 18.2014 2.07002 17.0402 1.99945C15.4047 1.89984 13.721 1.85394 11.8917 1.85793C10.0583 1.85358 8.37452 1.89984 6.73895 1.99945C5.57781 2.07002 4.57107 2.44685 3.7463 3.11922C2.98394 3.74097 2.45889 4.59876 2.18584 5.66882C1.91515 6.72981 1.89955 7.86863 1.88449 8.97026C1.8727 9.83331 1.86036 10.8553 1.85782 11.8922C1.86036 12.9245 1.8727 13.9466 1.88449 14.8097C1.89955 15.9111 1.91515 17.0501 2.18584 18.1109C2.45889 19.181 2.98394 20.0388 3.7463 20.6605C4.57107 21.3329 5.57781 21.7097 6.73895 21.7803C8.37452 21.8799 10.0587 21.9264 11.8873 21.9218ZM11.8431 17.6957C8.64194 17.6957 6.03737 15.0913 6.03737 11.89C6.03737 8.68868 8.64194 6.08429 11.8431 6.08429C15.0443 6.08429 17.6487 8.68868 17.6487 11.89C17.6487 15.0913 15.0443 17.6957 11.8431 17.6957ZM11.8431 7.94211C9.66628 7.94211 7.89519 9.71321 7.89519 11.89C7.89519 14.0667 9.66628 15.8378 11.8431 15.8378C14.02 15.8378 15.7909 14.0667 15.7909 11.89C15.7909 9.71321 14.02 7.94211 11.8431 7.94211ZM18.299 4.22647C17.5295 4.22647 16.9056 4.85022 16.9056 5.61984C16.9056 6.38945 17.5295 7.0132 18.299 7.0132C19.0686 7.0132 19.6923 6.38945 19.6923 5.61984C19.6923 4.85022 19.0686 4.22647 18.299 4.22647Z" fill="white"/>
</svg>
