<svg width="24" height="28" viewBox="0 0 24 28" fill="none" xmlns="http://www.w3.org/2000/svg">
<path d="M17.3203 0.0996094C17.317 0.155026 17.3137 0.229347 17.3145 0.320312C17.316 0.506543 17.3317 0.763617 17.3779 1.07324H17.3701L17.3896 1.18945C17.5357 2.06147 17.9317 3.30555 18.9902 4.53027L18.9922 4.53223C19.4149 4.99435 19.8908 5.40379 20.4102 5.75098H20.4111C20.5902 5.86888 20.775 5.97793 20.9648 6.07715H20.9658C22.1238 6.66093 23.2633 6.86255 23.9004 6.82812V11.3916C23.8553 11.3891 23.7967 11.3865 23.7266 11.3818C23.5516 11.3701 23.3052 11.3507 23.0205 11.3213C22.4501 11.2624 21.729 11.1622 21.1172 10.998C20.261 10.7664 19.5585 10.4729 19.0703 10.2373C18.8262 10.1195 18.6358 10.0159 18.5068 9.94238C18.4424 9.90566 18.3932 9.87647 18.3604 9.85645C18.344 9.84645 18.3314 9.8391 18.3232 9.83398C18.3193 9.83147 18.3164 9.82937 18.3145 9.82812L18.3125 9.82715L18.3115 9.82617H18.3105L18.3047 9.82129C18.299 9.81751 18.2899 9.81175 18.2793 9.80469C18.2582 9.79058 18.2276 9.77028 18.1914 9.74609C18.1185 9.69739 18.0204 9.63174 17.9209 9.56543C17.7244 9.43446 17.5161 9.2963 17.4834 9.27637L17.3311 9.18359V19.2266C17.331 19.7656 17.1885 21.1241 16.7637 22.2539C16.3906 23.2215 15.8572 24.118 15.1865 24.9043L15.1846 24.9072V24.9082C15.1841 24.9087 15.1826 24.909 15.1816 24.9102C15.1798 24.9125 15.1767 24.9162 15.1729 24.9209C15.165 24.9304 15.1534 24.9446 15.1377 24.9629C15.1058 25.0001 15.0575 25.0547 14.9941 25.123C14.8674 25.2597 14.6792 25.4521 14.4326 25.6719C13.9393 26.1116 13.2155 26.6611 12.2939 27.1025C10.6338 27.8981 9.17273 27.8803 8.72949 27.8984H8.72363C8.71916 27.8986 8.71216 27.8992 8.70312 27.8994C8.68462 27.8998 8.65641 27.9005 8.62012 27.9004C8.54744 27.9001 8.44038 27.898 8.30469 27.8906C8.033 27.8758 7.6456 27.8399 7.1875 27.7549C6.27293 27.5852 5.07722 27.2204 3.94336 26.4434L3.93848 26.4385L3.76758 26.2656V26.3232C3.0614 25.8031 2.42796 25.1885 1.88672 24.4941C1.17784 23.5798 0.737672 22.4947 0.616211 22.1553V22.1465L0.611328 22.1309C0.440272 21.6135 0.0952593 20.4144 0.0996094 19.2148L0.105469 18.9746C0.19632 16.7136 0.946716 15.3229 1.14258 14.9814L1.14355 14.9795C1.66548 14.03 2.34642 13.1792 3.15723 12.4668C4.08187 11.6833 5.15771 11.1032 6.31543 10.7607C7.44518 10.4266 8.6296 10.3274 9.79785 10.4678L9.79297 15.1416C9.52749 15.064 9.25568 15.0121 8.98047 14.9902L8.6582 14.9775C6.38567 14.9776 4.54699 16.8505 4.54688 19.1602C4.54688 21.3977 6.27238 23.2257 8.44629 23.3379L8.6582 23.3438C9.27719 23.3445 9.8868 23.2021 10.4414 22.9297L10.6758 22.8057C11.2654 22.4669 11.764 21.9861 12.127 21.4072C12.4897 20.8284 12.7065 20.1684 12.7578 19.4854V19.4668C12.7594 19.4523 12.7607 19.4396 12.7607 19.4307C12.7621 19.4046 12.7656 19.3683 12.7656 19.335H12.7646C12.775 19.09 12.7754 18.8426 12.7754 18.5947V0.0996094H17.3203Z" fill="white" stroke="#0B362F" stroke-width="0.2"/>
</svg>
